<svg xmlns="http://www.w3.org/2000/svg" viewBox="-540 -540 1080 1080"><defs><filter id="a" width="1080" height="1080" x="-540" y="-540"><feDropShadow dx="0" dy="5" stdDeviation="5"/></filter></defs><circle r="500.608" fill="#fff" fill-opacity=".5" stroke="#000" stroke-width="8.621" filter="url(#a)"/><path fill-rule="evenodd" d="M0-405a405 405 0 1 1-.07 0Zm0 154.696a250.304 250.304 0 1 1-.044 0Z"/><path fill="#336" d="m0-405 238.053 732.652-623.23-452.804h770.355l-623.231 452.804zl238.053 732.652-623.23-452.804h770.355l-623.231 452.804zl238.053 732.652-623.23-452.804h770.355l-623.231 452.804zl238.053 732.652-623.23-452.804h770.355l-623.231 452.804zl238.053 732.652-623.23-452.804h770.355l-623.231 452.804zl238.053 732.652-623.23-452.804h770.355l-623.231 452.804z"/><path fill="none" stroke="#39f" stroke-width="59.089" d="M0-405a405 405 0 1 1-238.053 732.652Z" filter="url(#a)"/><path fill="none" stroke="#fc0" stroke-width="59.089" d="M-216.77-125.152a250.304 250.304 0 1 1 402.782 292.638l52.041 160.166L0 154.696l-101.808 73.968a250.3 250.3 0 0 1-84.204-61.178l95.084-292.638Z" class="R" filter="url(#a)"/></svg>